<mxfile host="app.diagrams.net" agent="Mozilla/5.0 (Windows NT 10.0; Win64; x64) AppleWebKit/537.36 (KHTML, like Gecko) Chrome/131.0.0.0 Safari/537.36" version="25.0.3">
  <diagram name="Страница — 1" id="YJWzsivMshpLxU6BPxfg">
    <mxGraphModel dx="2735" dy="2285" grid="1" gridSize="10" guides="1" tooltips="1" connect="1" arrows="1" fold="1" page="1" pageScale="1" pageWidth="827" pageHeight="1169" math="0" shadow="0">
      <root>
        <mxCell id="0" />
        <mxCell id="1" parent="0" />
        <mxCell id="7FKY2g20Eqni_3LVswxj-7" value="Пользователь" style="shape=umlActor;verticalLabelPosition=bottom;verticalAlign=top;html=1;outlineConnect=0;" vertex="1" parent="1">
          <mxGeometry x="-240" y="280" width="30" height="60" as="geometry" />
        </mxCell>
        <mxCell id="7FKY2g20Eqni_3LVswxj-49" value="&#xa;&lt;span style=&quot;color: rgb(0, 0, 0); font-family: Helvetica; font-size: 11px; font-style: normal; font-variant-ligatures: normal; font-variant-caps: normal; font-weight: 400; letter-spacing: normal; orphans: 2; text-align: center; text-indent: 0px; text-transform: none; widows: 2; word-spacing: 0px; -webkit-text-stroke-width: 0px; white-space: nowrap; background-color: rgb(255, 255, 255); text-decoration-thickness: initial; text-decoration-style: initial; text-decoration-color: initial; display: inline !important; float: none;&quot;&gt;extends&lt;/span&gt;&#xa;&#xa;" style="edgeStyle=none;shape=connector;rounded=0;orthogonalLoop=1;jettySize=auto;html=1;dashed=1;strokeColor=default;align=center;verticalAlign=middle;fontFamily=Helvetica;fontSize=11;fontColor=default;labelBackgroundColor=default;endArrow=classic;" edge="1" parent="1" source="7FKY2g20Eqni_3LVswxj-10" target="7FKY2g20Eqni_3LVswxj-28">
          <mxGeometry relative="1" as="geometry" />
        </mxCell>
        <mxCell id="7FKY2g20Eqni_3LVswxj-10" value="Включение и выключение трекинга" style="ellipse;whiteSpace=wrap;html=1;" vertex="1" parent="1">
          <mxGeometry x="630" y="-210" width="180" height="120" as="geometry" />
        </mxCell>
        <mxCell id="7FKY2g20Eqni_3LVswxj-56" value="&#xa;&lt;span style=&quot;color: rgb(0, 0, 0); font-family: Helvetica; font-size: 11px; font-style: normal; font-variant-ligatures: normal; font-variant-caps: normal; font-weight: 400; letter-spacing: normal; orphans: 2; text-align: center; text-indent: 0px; text-transform: none; widows: 2; word-spacing: 0px; -webkit-text-stroke-width: 0px; white-space: nowrap; background-color: rgb(255, 255, 255); text-decoration-thickness: initial; text-decoration-style: initial; text-decoration-color: initial; display: inline !important; float: none;&quot;&gt;extends&lt;/span&gt;&#xa;&#xa;" style="edgeStyle=none;shape=connector;rounded=0;orthogonalLoop=1;jettySize=auto;html=1;dashed=1;strokeColor=default;align=center;verticalAlign=middle;fontFamily=Helvetica;fontSize=11;fontColor=default;labelBackgroundColor=default;endArrow=classic;" edge="1" parent="1" source="7FKY2g20Eqni_3LVswxj-11" target="7FKY2g20Eqni_3LVswxj-29">
          <mxGeometry relative="1" as="geometry" />
        </mxCell>
        <mxCell id="7FKY2g20Eqni_3LVswxj-11" value="Просмотр соотношения количества запусков рекламы, после которых произошло событие к общему количеству запусков рекламы" style="ellipse;whiteSpace=wrap;html=1;" vertex="1" parent="1">
          <mxGeometry x="860" y="500" width="180" height="120" as="geometry" />
        </mxCell>
        <mxCell id="7FKY2g20Eqni_3LVswxj-54" style="edgeStyle=none;shape=connector;rounded=0;orthogonalLoop=1;jettySize=auto;html=1;strokeColor=default;align=center;verticalAlign=middle;fontFamily=Helvetica;fontSize=11;fontColor=default;labelBackgroundColor=default;endArrow=none;endFill=0;" edge="1" parent="1" source="7FKY2g20Eqni_3LVswxj-12" target="7FKY2g20Eqni_3LVswxj-7">
          <mxGeometry relative="1" as="geometry" />
        </mxCell>
        <mxCell id="7FKY2g20Eqni_3LVswxj-12" value="Просмотр базы данных с записанными событиями" style="ellipse;whiteSpace=wrap;html=1;" vertex="1" parent="1">
          <mxGeometry x="-70" y="450" width="180" height="120" as="geometry" />
        </mxCell>
        <mxCell id="7FKY2g20Eqni_3LVswxj-50" value="&#xa;&lt;span style=&quot;color: rgb(0, 0, 0); font-family: Helvetica; font-size: 11px; font-style: normal; font-variant-ligatures: normal; font-variant-caps: normal; font-weight: 400; letter-spacing: normal; orphans: 2; text-align: center; text-indent: 0px; text-transform: none; widows: 2; word-spacing: 0px; -webkit-text-stroke-width: 0px; white-space: nowrap; background-color: rgb(255, 255, 255); text-decoration-thickness: initial; text-decoration-style: initial; text-decoration-color: initial; display: inline !important; float: none;&quot;&gt;extends&lt;/span&gt;&#xa;&#xa;" style="edgeStyle=none;shape=connector;rounded=0;orthogonalLoop=1;jettySize=auto;html=1;dashed=1;strokeColor=default;align=center;verticalAlign=middle;fontFamily=Helvetica;fontSize=11;fontColor=default;labelBackgroundColor=default;endArrow=classic;" edge="1" parent="1" source="7FKY2g20Eqni_3LVswxj-13" target="7FKY2g20Eqni_3LVswxj-29">
          <mxGeometry relative="1" as="geometry" />
        </mxCell>
        <mxCell id="7FKY2g20Eqni_3LVswxj-13" value="Просмотр&lt;div&gt;количества&lt;div&gt;записей об определенном событии в течение определенных промежутков времени в виде&lt;/div&gt;&lt;div&gt;диаграммы&lt;/div&gt;&lt;/div&gt;" style="ellipse;whiteSpace=wrap;html=1;" vertex="1" parent="1">
          <mxGeometry x="810" y="690" width="180" height="120" as="geometry" />
        </mxCell>
        <mxCell id="7FKY2g20Eqni_3LVswxj-53" style="edgeStyle=none;shape=connector;rounded=0;orthogonalLoop=1;jettySize=auto;html=1;strokeColor=default;align=center;verticalAlign=middle;fontFamily=Helvetica;fontSize=11;fontColor=default;labelBackgroundColor=default;endArrow=none;endFill=0;" edge="1" parent="1" source="7FKY2g20Eqni_3LVswxj-14" target="7FKY2g20Eqni_3LVswxj-7">
          <mxGeometry relative="1" as="geometry" />
        </mxCell>
        <mxCell id="7FKY2g20Eqni_3LVswxj-14" value="Мониторинг работы сервиса трекинга" style="ellipse;whiteSpace=wrap;html=1;" vertex="1" parent="1">
          <mxGeometry x="-90" y="70" width="180" height="120" as="geometry" />
        </mxCell>
        <mxCell id="7FKY2g20Eqni_3LVswxj-51" value="&#xa;&lt;span style=&quot;color: rgb(0, 0, 0); font-family: Helvetica; font-size: 11px; font-style: normal; font-variant-ligatures: normal; font-variant-caps: normal; font-weight: 400; letter-spacing: normal; orphans: 2; text-align: center; text-indent: 0px; text-transform: none; widows: 2; word-spacing: 0px; -webkit-text-stroke-width: 0px; white-space: nowrap; background-color: rgb(255, 255, 255); text-decoration-thickness: initial; text-decoration-style: initial; text-decoration-color: initial; display: inline !important; float: none;&quot;&gt;extends&lt;/span&gt;&#xa;&#xa;" style="edgeStyle=none;shape=connector;rounded=0;orthogonalLoop=1;jettySize=auto;html=1;dashed=1;strokeColor=default;align=center;verticalAlign=middle;fontFamily=Helvetica;fontSize=11;fontColor=default;labelBackgroundColor=default;endArrow=classic;" edge="1" parent="1" source="7FKY2g20Eqni_3LVswxj-15" target="7FKY2g20Eqni_3LVswxj-28">
          <mxGeometry relative="1" as="geometry" />
        </mxCell>
        <mxCell id="7FKY2g20Eqni_3LVswxj-15" value="Исключение определенных событий из списка отслеживаемых" style="ellipse;whiteSpace=wrap;html=1;" vertex="1" parent="1">
          <mxGeometry x="370" y="-210" width="180" height="120" as="geometry" />
        </mxCell>
        <mxCell id="7FKY2g20Eqni_3LVswxj-46" value="&#xa;&lt;span style=&quot;color: rgb(0, 0, 0); font-family: Helvetica; font-size: 11px; font-style: normal; font-variant-ligatures: normal; font-variant-caps: normal; font-weight: 400; letter-spacing: normal; orphans: 2; text-align: center; text-indent: 0px; text-transform: none; widows: 2; word-spacing: 0px; -webkit-text-stroke-width: 0px; white-space: nowrap; background-color: rgb(255, 255, 255); text-decoration-thickness: initial; text-decoration-style: initial; text-decoration-color: initial; display: inline !important; float: none;&quot;&gt;extends&lt;/span&gt;&#xa;&#xa;" style="edgeStyle=none;shape=connector;rounded=0;orthogonalLoop=1;jettySize=auto;html=1;dashed=1;strokeColor=default;align=center;verticalAlign=middle;fontFamily=Helvetica;fontSize=11;fontColor=default;labelBackgroundColor=default;endArrow=classic;" edge="1" parent="1" source="7FKY2g20Eqni_3LVswxj-16" target="7FKY2g20Eqni_3LVswxj-29">
          <mxGeometry relative="1" as="geometry" />
        </mxCell>
        <mxCell id="7FKY2g20Eqni_3LVswxj-16" value="Просмотр времени, прошедшего с загрузки рекламы до события" style="ellipse;whiteSpace=wrap;html=1;" vertex="1" parent="1">
          <mxGeometry x="570" y="740" width="180" height="120" as="geometry" />
        </mxCell>
        <mxCell id="7FKY2g20Eqni_3LVswxj-55" value="&#xa;&lt;span style=&quot;color: rgb(0, 0, 0); font-family: Helvetica; font-size: 11px; font-style: normal; font-variant-ligatures: normal; font-variant-caps: normal; font-weight: 400; letter-spacing: normal; orphans: 2; text-align: center; text-indent: 0px; text-transform: none; widows: 2; word-spacing: 0px; -webkit-text-stroke-width: 0px; white-space: nowrap; background-color: rgb(255, 255, 255); text-decoration-thickness: initial; text-decoration-style: initial; text-decoration-color: initial; display: inline !important; float: none;&quot;&gt;extends&lt;/span&gt;&#xa;&#xa;" style="edgeStyle=none;shape=connector;rounded=0;orthogonalLoop=1;jettySize=auto;html=1;dashed=1;strokeColor=default;align=center;verticalAlign=middle;fontFamily=Helvetica;fontSize=11;fontColor=default;labelBackgroundColor=default;endArrow=classic;" edge="1" parent="1" source="7FKY2g20Eqni_3LVswxj-17" target="7FKY2g20Eqni_3LVswxj-29">
          <mxGeometry relative="1" as="geometry" />
        </mxCell>
        <mxCell id="7FKY2g20Eqni_3LVswxj-17" value="Исключение определенных платформ из статистики и отчета" style="ellipse;whiteSpace=wrap;html=1;" vertex="1" parent="1">
          <mxGeometry x="340" y="670" width="180" height="120" as="geometry" />
        </mxCell>
        <mxCell id="7FKY2g20Eqni_3LVswxj-40" value="extends" style="rounded=0;orthogonalLoop=1;jettySize=auto;html=1;dashed=1;" edge="1" parent="1" source="7FKY2g20Eqni_3LVswxj-27" target="7FKY2g20Eqni_3LVswxj-35">
          <mxGeometry relative="1" as="geometry" />
        </mxCell>
        <mxCell id="7FKY2g20Eqni_3LVswxj-27" value="Работа с версиями проектов" style="ellipse;whiteSpace=wrap;html=1;" vertex="1" parent="1">
          <mxGeometry x="360" y="260" width="180" height="120" as="geometry" />
        </mxCell>
        <mxCell id="7FKY2g20Eqni_3LVswxj-48" value="&#xa;&lt;span style=&quot;color: rgb(0, 0, 0); font-family: Helvetica; font-size: 11px; font-style: normal; font-variant-ligatures: normal; font-variant-caps: normal; font-weight: 400; letter-spacing: normal; orphans: 2; text-align: center; text-indent: 0px; text-transform: none; widows: 2; word-spacing: 0px; -webkit-text-stroke-width: 0px; white-space: nowrap; background-color: rgb(255, 255, 255); text-decoration-thickness: initial; text-decoration-style: initial; text-decoration-color: initial; display: inline !important; float: none;&quot;&gt;extends&lt;/span&gt;&#xa;&#xa;" style="edgeStyle=none;shape=connector;rounded=0;orthogonalLoop=1;jettySize=auto;html=1;dashed=1;strokeColor=default;align=center;verticalAlign=middle;fontFamily=Helvetica;fontSize=11;fontColor=default;labelBackgroundColor=default;endArrow=classic;" edge="1" parent="1" source="7FKY2g20Eqni_3LVswxj-28" target="7FKY2g20Eqni_3LVswxj-27">
          <mxGeometry relative="1" as="geometry" />
        </mxCell>
        <mxCell id="7FKY2g20Eqni_3LVswxj-28" value="Изменение настроек версий проектов" style="ellipse;whiteSpace=wrap;html=1;" vertex="1" parent="1">
          <mxGeometry x="460" y="10" width="180" height="120" as="geometry" />
        </mxCell>
        <mxCell id="7FKY2g20Eqni_3LVswxj-43" value="&#xa;&lt;span style=&quot;color: rgb(0, 0, 0); font-family: Helvetica; font-size: 11px; font-style: normal; font-variant-ligatures: normal; font-variant-caps: normal; font-weight: 400; letter-spacing: normal; orphans: 2; text-align: center; text-indent: 0px; text-transform: none; widows: 2; word-spacing: 0px; -webkit-text-stroke-width: 0px; white-space: nowrap; background-color: rgb(255, 255, 255); text-decoration-thickness: initial; text-decoration-style: initial; text-decoration-color: initial; display: inline !important; float: none;&quot;&gt;extends&lt;/span&gt;&#xa;&#xa;" style="edgeStyle=none;shape=connector;rounded=0;orthogonalLoop=1;jettySize=auto;html=1;dashed=1;strokeColor=default;align=center;verticalAlign=middle;fontFamily=Helvetica;fontSize=11;fontColor=default;labelBackgroundColor=default;endArrow=classic;" edge="1" parent="1" source="7FKY2g20Eqni_3LVswxj-29" target="7FKY2g20Eqni_3LVswxj-27">
          <mxGeometry relative="1" as="geometry" />
        </mxCell>
        <mxCell id="7FKY2g20Eqni_3LVswxj-29" value="Открытие информационной сводки по отслеживанию событий в версии" style="ellipse;whiteSpace=wrap;html=1;" vertex="1" parent="1">
          <mxGeometry x="587" y="515" width="180" height="120" as="geometry" />
        </mxCell>
        <mxCell id="7FKY2g20Eqni_3LVswxj-47" value="&#xa;&lt;span style=&quot;color: rgb(0, 0, 0); font-family: Helvetica; font-size: 11px; font-style: normal; font-variant-ligatures: normal; font-variant-caps: normal; font-weight: 400; letter-spacing: normal; orphans: 2; text-align: center; text-indent: 0px; text-transform: none; widows: 2; word-spacing: 0px; -webkit-text-stroke-width: 0px; white-space: nowrap; background-color: rgb(255, 255, 255); text-decoration-thickness: initial; text-decoration-style: initial; text-decoration-color: initial; display: inline !important; float: none;&quot;&gt;extends&lt;/span&gt;&#xa;&#xa;" style="edgeStyle=none;shape=connector;rounded=0;orthogonalLoop=1;jettySize=auto;html=1;dashed=1;strokeColor=default;align=center;verticalAlign=middle;fontFamily=Helvetica;fontSize=11;fontColor=default;labelBackgroundColor=default;endArrow=classic;" edge="1" parent="1" source="7FKY2g20Eqni_3LVswxj-30" target="7FKY2g20Eqni_3LVswxj-34">
          <mxGeometry relative="1" as="geometry" />
        </mxCell>
        <mxCell id="7FKY2g20Eqni_3LVswxj-30" value="Сбор информации о&lt;div&gt;времени и количестве&lt;/div&gt;&lt;div&gt;событий&lt;/div&gt;" style="ellipse;whiteSpace=wrap;html=1;" vertex="1" parent="1">
          <mxGeometry x="940" y="-40" width="180" height="120" as="geometry" />
        </mxCell>
        <mxCell id="7FKY2g20Eqni_3LVswxj-44" value="&#xa;&lt;span style=&quot;color: rgb(0, 0, 0); font-family: Helvetica; font-size: 11px; font-style: normal; font-variant-ligatures: normal; font-variant-caps: normal; font-weight: 400; letter-spacing: normal; orphans: 2; text-align: center; text-indent: 0px; text-transform: none; widows: 2; word-spacing: 0px; -webkit-text-stroke-width: 0px; white-space: nowrap; background-color: rgb(255, 255, 255); text-decoration-thickness: initial; text-decoration-style: initial; text-decoration-color: initial; display: inline !important; float: none;&quot;&gt;extends&lt;/span&gt;&#xa;&#xa;" style="edgeStyle=none;shape=connector;rounded=0;orthogonalLoop=1;jettySize=auto;html=1;dashed=1;strokeColor=default;align=center;verticalAlign=middle;fontFamily=Helvetica;fontSize=11;fontColor=default;labelBackgroundColor=default;endArrow=classic;" edge="1" parent="1" source="7FKY2g20Eqni_3LVswxj-31" target="7FKY2g20Eqni_3LVswxj-34">
          <mxGeometry relative="1" as="geometry" />
        </mxCell>
        <mxCell id="7FKY2g20Eqni_3LVswxj-31" value="Сбор информации о сессиях, устройствах и платформах" style="ellipse;whiteSpace=wrap;html=1;" vertex="1" parent="1">
          <mxGeometry x="1030" y="150" width="180" height="120" as="geometry" />
        </mxCell>
        <mxCell id="7FKY2g20Eqni_3LVswxj-45" value="&#xa;&lt;span style=&quot;color: rgb(0, 0, 0); font-family: Helvetica; font-size: 11px; font-style: normal; font-variant-ligatures: normal; font-variant-caps: normal; font-weight: 400; letter-spacing: normal; orphans: 2; text-align: center; text-indent: 0px; text-transform: none; widows: 2; word-spacing: 0px; -webkit-text-stroke-width: 0px; white-space: nowrap; background-color: rgb(255, 255, 255); text-decoration-thickness: initial; text-decoration-style: initial; text-decoration-color: initial; display: inline !important; float: none;&quot;&gt;extends&lt;/span&gt;&#xa;&#xa;" style="edgeStyle=none;shape=connector;rounded=0;orthogonalLoop=1;jettySize=auto;html=1;dashed=1;strokeColor=default;align=center;verticalAlign=middle;fontFamily=Helvetica;fontSize=11;fontColor=default;labelBackgroundColor=default;endArrow=classic;" edge="1" parent="1" source="7FKY2g20Eqni_3LVswxj-32" target="7FKY2g20Eqni_3LVswxj-34">
          <mxGeometry relative="1" as="geometry" />
        </mxCell>
        <mxCell id="7FKY2g20Eqni_3LVswxj-32" value="Сбор информации о видах релиза и рекламных сетях" style="ellipse;whiteSpace=wrap;html=1;" vertex="1" parent="1">
          <mxGeometry x="1030" y="330" width="180" height="120" as="geometry" />
        </mxCell>
        <mxCell id="7FKY2g20Eqni_3LVswxj-58" value="&#xa;&lt;span style=&quot;color: rgb(0, 0, 0); font-family: Helvetica; font-size: 11px; font-style: normal; font-variant-ligatures: normal; font-variant-caps: normal; font-weight: 400; letter-spacing: normal; orphans: 2; text-align: center; text-indent: 0px; text-transform: none; widows: 2; word-spacing: 0px; -webkit-text-stroke-width: 0px; white-space: nowrap; background-color: rgb(255, 255, 255); text-decoration-thickness: initial; text-decoration-style: initial; text-decoration-color: initial; display: inline !important; float: none;&quot;&gt;extends&lt;/span&gt;&#xa;&#xa;" style="edgeStyle=none;shape=connector;rounded=0;orthogonalLoop=1;jettySize=auto;html=1;dashed=1;strokeColor=default;align=center;verticalAlign=middle;fontFamily=Helvetica;fontSize=11;fontColor=default;labelBackgroundColor=default;endArrow=classic;" edge="1" parent="1" source="7FKY2g20Eqni_3LVswxj-33" target="7FKY2g20Eqni_3LVswxj-29">
          <mxGeometry relative="1" as="geometry" />
        </mxCell>
        <mxCell id="7FKY2g20Eqni_3LVswxj-33" value="Скачивание отчета о сохраненных событиях&lt;div&gt;для версии проекта в виде таблицы&lt;/div&gt;" style="ellipse;whiteSpace=wrap;html=1;" vertex="1" parent="1">
          <mxGeometry x="310" y="510" width="180" height="120" as="geometry" />
        </mxCell>
        <mxCell id="7FKY2g20Eqni_3LVswxj-42" value="&#xa;&lt;span style=&quot;color: rgb(0, 0, 0); font-family: Helvetica; font-size: 11px; font-style: normal; font-variant-ligatures: normal; font-variant-caps: normal; font-weight: 400; letter-spacing: normal; orphans: 2; text-align: center; text-indent: 0px; text-transform: none; widows: 2; word-spacing: 0px; -webkit-text-stroke-width: 0px; white-space: nowrap; background-color: rgb(255, 255, 255); text-decoration-thickness: initial; text-decoration-style: initial; text-decoration-color: initial; display: inline !important; float: none;&quot;&gt;extends&lt;/span&gt;&#xa;&#xa;" style="edgeStyle=none;shape=connector;rounded=0;orthogonalLoop=1;jettySize=auto;html=1;dashed=1;strokeColor=default;align=center;verticalAlign=middle;fontFamily=Helvetica;fontSize=11;fontColor=default;labelBackgroundColor=default;endArrow=classic;" edge="1" parent="1" source="7FKY2g20Eqni_3LVswxj-34" target="7FKY2g20Eqni_3LVswxj-27">
          <mxGeometry relative="1" as="geometry" />
        </mxCell>
        <mxCell id="7FKY2g20Eqni_3LVswxj-34" value="Сборка релиза версии с трекингом" style="ellipse;whiteSpace=wrap;html=1;" vertex="1" parent="1">
          <mxGeometry x="750" y="170" width="180" height="120" as="geometry" />
        </mxCell>
        <mxCell id="7FKY2g20Eqni_3LVswxj-57" style="edgeStyle=none;shape=connector;rounded=0;orthogonalLoop=1;jettySize=auto;html=1;strokeColor=default;align=center;verticalAlign=middle;fontFamily=Helvetica;fontSize=11;fontColor=default;labelBackgroundColor=default;endArrow=none;endFill=0;" edge="1" parent="1" source="7FKY2g20Eqni_3LVswxj-35" target="7FKY2g20Eqni_3LVswxj-7">
          <mxGeometry relative="1" as="geometry" />
        </mxCell>
        <mxCell id="7FKY2g20Eqni_3LVswxj-35" value="Работа с проектами" style="ellipse;whiteSpace=wrap;html=1;" vertex="1" parent="1">
          <mxGeometry x="40" y="252" width="180" height="120" as="geometry" />
        </mxCell>
      </root>
    </mxGraphModel>
  </diagram>
</mxfile>
